<?xml version="1.0" encoding="utf-8"?>
<!-- Generator: Adobe Illustrator 16.0.3, SVG Export Plug-In . SVG Version: 6.00 Build 0)  -->
<!DOCTYPE svg PUBLIC "-//W3C//DTD SVG 1.1//EN" "http://www.w3.org/Graphics/SVG/1.1/DTD/svg11.dtd">
<svg version="1.1" id="Vrstva_1" xmlns="http://www.w3.org/2000/svg" xmlns:xlink="http://www.w3.org/1999/xlink" x="0px" y="0px"
	 width="512px" height="512px" viewBox="0 0 512 512" enable-background="new 0 0 512 512" xml:space="preserve">
<rect x="96.5" y="298.5" fill="#FFFFFF" width="80" height="166"/>
<rect x="234.5" y="213.5" fill="#F67A36" width="80" height="251"/>
<rect x="367.5" y="116.5" fill="#2135CC" width="80" height="348"/>
<circle fill="#F67A36" cx="163.5" cy="126" r="62"/>
<path fill="#FFFFFF" d="M162.1,153.6c-4.7,0-8.5-3.8-8.5-8.5h-17.1c0,10.8,6.9,20.4,17.1,24v10.1h17.1v-10.1
	c10.2-3.6,17-13.2,17.1-24c0-13.8-12.6-20.1-21.8-24.7c-7.2-3.6-12.3-6.4-12.3-9.4c0-4.7,3.8-8.5,8.5-8.5c4.7,0,8.5,3.8,8.5,8.5
	h17.1c0-10.8-6.9-20.4-17.1-24V76.8h-17.1v10.1c-10.2,3.6-17,13.2-17.1,24c0,13.8,12.6,20.1,21.8,24.7c7.2,3.6,12.3,6.4,12.3,9.4
	C170.7,149.8,166.8,153.6,162.1,153.6z"/>
<path fill="#2135CC" d="M162.1,204.8c42.4,0,76.8-34.4,76.8-76.8s-34.4-76.8-76.8-76.8c-42.4,0-76.8,34.4-76.8,76.8
	C85.4,170.4,119.7,204.8,162.1,204.8z M162.1,68.3c33,0,59.7,26.7,59.7,59.7s-26.7,59.7-59.7,59.7c-33,0-59.7-26.7-59.7-59.7
	C102.4,95,129.2,68.3,162.1,68.3z"/>
<path fill="#2135CC" d="M364.4,53.7L313.2,2.5c-3.3-3.3-8.7-3.3-12.1,0L250,53.7c-2.4,2.4-3.2,6.1-1.9,9.3c1.3,3.2,4.4,5.3,7.9,5.3
	h17.1V128c0,4.7,3.8,8.5,8.5,8.5h51.2c4.7,0,8.5-3.8,8.5-8.5V68.3h17.1c3.5,0,6.6-2.1,7.9-5.3C367.6,59.8,366.9,56.1,364.4,53.7z"/>
<path fill="#2135CC" d="M503.5,460.8h-42.7V119.5c0-9.4-7.6-17.1-17.1-17.1h-68.3c-9.4,0-17.1,7.6-17.1,17.1v341.3h-34.1V221.9
	c0-9.4-7.6-17.1-17.1-17.1h-68.3c-9.4,0-17.1,7.6-17.1,17.1v238.9h-34.1V307.2c0-9.4-7.6-17.1-17.1-17.1h-68.3
	c-9.4,0-17.1,7.6-17.1,17.1v153.6H51.2V8.5c0-4.7-3.8-8.5-8.5-8.5H8.5C3.8,0,0,3.8,0,8.5v486.4c0,9.4,7.6,17.1,17.1,17.1h486.4
	c4.7,0,8.5-3.8,8.5-8.5v-34.1C512,464.6,508.2,460.8,503.5,460.8z M375.5,119.5h68.3v341.3h-68.3V119.5z M238.9,221.9h68.3v238.9
	h-68.3V221.9z M102.4,307.2h68.3v153.6h-68.3V307.2z M494.9,494.9H17.1V17.1h17.1v452.3c0,4.7,3.8,8.5,8.5,8.5h452.3V494.9z"/>
</svg>
