<?xml version="1.0" encoding="utf-8"?>
<!-- Generator: Adobe Illustrator 16.0.3, SVG Export Plug-In . SVG Version: 6.00 Build 0)  -->
<!DOCTYPE svg PUBLIC "-//W3C//DTD SVG 1.1//EN" "http://www.w3.org/Graphics/SVG/1.1/DTD/svg11.dtd">
<svg version="1.1" id="Capa_1" xmlns="http://www.w3.org/2000/svg" xmlns:xlink="http://www.w3.org/1999/xlink" x="0px" y="0px"
	 width="1555.7px" height="1600px" viewBox="22.1 700 1555.7 1600" enable-background="new 22.1 700 1555.7 1600"
	 xml:space="preserve">
<g>
	<path fill="#FFFFFF" d="M1466,1408.6H133.2c-61.3,0-111.1,49.7-111.1,111.1c0,61.3,49.7,111.1,111.1,111.1H1466
		c61.3,0,111.1-49.7,111.1-111.1C1577,1458.3,1527.3,1408.6,1466,1408.6z M133.2,1186.5H1466c61.3,0,111.1-49.7,111.1-111.1
		c0-61.3-49.7-111.1-111.1-111.1H133.2c-61.3,0-111.1,49.7-111.1,111.1C22.1,1136.8,71.9,1186.5,133.2,1186.5z M1466,1852.9H133.2
		c-61.3,0-111.1,49.7-111.1,111.1c0,61.3,49.7,111.1,111.1,111.1H1466c61.3,0,111.1-49.7,111.1-111.1
		C1577,1902.6,1527.3,1852.9,1466,1852.9z"/>
</g>
</svg>
