<?xml version="1.0" encoding="utf-8"?>
<!-- Generator: Adobe Illustrator 16.0.3, SVG Export Plug-In . SVG Version: 6.00 Build 0)  -->
<!DOCTYPE svg PUBLIC "-//W3C//DTD SVG 1.1//EN" "http://www.w3.org/Graphics/SVG/1.1/DTD/svg11.dtd">
<svg version="1.1" id="Capa_1" xmlns="http://www.w3.org/2000/svg" xmlns:xlink="http://www.w3.org/1999/xlink" x="0px" y="0px"
	 width="512px" height="512px" viewBox="544 1244 512 512" enable-background="new 544 1244 512 512" xml:space="preserve">
<g>
	<g id="XMLID_1_">
		<g>
			<path fill="#2135CC" d="M1010,1314v163.2c0,130-85.6,241.9-207.1,278.4c-0.9,0.3-1.9,0.4-2.9,0.4c-1,0-1.9-0.1-2.9-0.4
				C672.9,1718.3,590,1604.4,590,1477.2V1314c0-5.5,4.5-10,10-10c27.6,0,50-22.4,50-50c0-5.5,4.5-10,10-10h280c5.5,0,10,4.5,10,10
				c0,27.6,22.4,50,50,50C1005.5,1304,1010,1308.5,1010,1314z M990,1477.2v-153.9c-30.6-4.4-54.9-28.7-59.3-59.3H669.3
				c-4.4,30.6-28.7,54.9-59.3,59.3v153.9c0,118.8,77.1,223.2,190,258.4C913.8,1700.1,990,1596.6,990,1477.2z"/>
			<path fill="#2135CC" d="M990,1323.3v153.9c0,119.4-76.2,222.9-190,258.4c-112.9-35.2-190-139.6-190-258.4v-153.9
				c30.6-4.4,54.9-28.7,59.3-59.3h261.4C935.1,1294.6,959.4,1318.9,990,1323.3z"/>
		</g>
		<g>
		</g>
	</g>
	<g>
		<g>
			<path fill="#FFFFFF" d="M964,1336.5c-20.9-9.1-37.4-25.6-46.5-46.5c-1.6-3.6-5.2-6-9.2-6H840c-5.5,0-10,4.5-10,10s4.5,10,10,10
				h62c10.6,20.7,27.3,37.4,48,48v125.2c0,97.9-58.7,182.3-150,216.1c-91.3-33.8-150-118.2-150-216.1V1352
				c20.7-10.6,37.4-27.3,48-48h62c5.5,0,10-4.5,10-10s-4.5-10-10-10h-68.4c-4,0-7.6,2.4-9.2,6c-9.1,20.9-25.6,37.4-46.5,46.5
				c-3.6,1.6-6,5.2-6,9.2v131.5c0,107.2,66.3,200.7,166.7,236.2c1.1,0.4,2.2,0.6,3.3,0.6s2.3-0.2,3.3-0.6
				c100.3-35.5,166.7-128.9,166.7-236.2v-131.5C970,1341.7,967.6,1338.1,964,1336.5z"/>
		</g>
	</g>
	<circle fill="#F67A36" cx="800.7" cy="1479.6" r="72.3"/>
	<g>
		<g>
			<path fill="#2135CC" d="M800,1390c-49.6,0-90,40.4-90,90s40.4,90,90,90c49.6,0,90-40.4,90-90S849.6,1390,800,1390z M800,1550
				c-38.6,0-70-31.4-70-70c0-38.6,31.4-70,70-70c38.6,0,70,31.4,70,70C870,1518.6,838.6,1550,800,1550z"/>
		</g>
	</g>
	<g>
		<g>
			<path fill="#FFFFFF" d="M847.1,1452.9c-3.9-3.9-10.2-3.9-14.1,0l-42.9,42.9l-12.9-12.9c-3.9-3.9-10.2-3.9-14.1,0
				c-3.9,3.9-3.9,10.2,0,14.1l20,20c2,2,4.5,2.9,7.1,2.9s5.1-1,7.1-2.9l50-50C851,1463.2,851,1456.8,847.1,1452.9z"/>
		</g>
	</g>
	<g>
		<g>
			<path fill="#FFFFFF" d="M800,1284c-5.5,0-10,4.5-10,10c0,5.1,3.9,9.4,9,9.9c5.9,0.6,11-4,11-9.9C810,1288.5,805.5,1284,800,1284z
				"/>
		</g>
	</g>
</g>
</svg>
