<?xml version="1.0" encoding="utf-8"?>
<!-- Generator: Adobe Illustrator 16.0.3, SVG Export Plug-In . SVG Version: 6.00 Build 0)  -->
<!DOCTYPE svg PUBLIC "-//W3C//DTD SVG 1.1//EN" "http://www.w3.org/Graphics/SVG/1.1/DTD/svg11.dtd">
<svg version="1.1" id="Vrstva_1" xmlns="http://www.w3.org/2000/svg" xmlns:xlink="http://www.w3.org/1999/xlink" x="0px" y="0px"
	 width="480px" height="480px" viewBox="0 0 480 480" enable-background="new 0 0 480 480" xml:space="preserve">
<path fill="#FFFFFF" d="M376,104c0,12.9,11.8,18.8,20.4,23.2c6.8,3.4,11.6,6,11.6,8.8c0,4.4-3.6,8-8,8s-8-3.6-8-8h-16
	c0,10.1,6.4,19.1,16,22.5v9.5h16v-9.5c9.6-3.4,16-12.4,16-22.5c0-12.9-11.8-18.8-20.4-23.2c-6.8-3.4-11.6-6-11.6-8.8
	c0-4.4,3.6-8,8-8s8,3.6,8,8h16c0-10.1-6.4-19.1-16-22.5V72h-16v9.5C382.4,84.9,376,93.9,376,104z"/>
<path fill="#2135CC" d="M392,24h16v32h-16V24z"/>
<path fill="#2135CC" d="M424,32h16v16h-16V32z"/>
<path fill="#2135CC" d="M424,0h16v16h-16V0z"/>
<path fill="#2135CC" d="M360,40h16v32h-16V40z"/>
<path fill="#2135CC" d="M360,8h16v16h-16V8z"/>
<path fill="#2135CC" d="M136,0h16v16h-16V0z"/>
<path fill="#2135CC" d="M200,32h16v16h-16V32z"/>
<path fill="#2135CC" d="M200,0h16v16h-16V0z"/>
<path fill="#2135CC" d="M232,88h16v16h-16V88z"/>
<path fill="#2135CC" d="M264,72h16v48h-16V72z"/>
<path fill="#2135CC" d="M296,56h16v16h-16V56z"/>
<path fill="#2135CC" d="M296,24h16v16h-16V24z"/>
<path fill="#2135CC" d="M264,40h16v16h-16V40z"/>
<path fill="#2135CC" d="M296,88h16v32h-16V88z"/>
<circle fill="#FFFFFF" cx="175.5" cy="88.5" r="32"/>
<circle fill="#FFFFFF" cx="272.5" cy="176.5" r="32"/>
<g id="XMLID_1_">
	<g>
		<path fill="#F67A36" d="M429.7,289.1c11,56.3-19.5,112.5-72.7,134.1c-3,1.2-5,4.2-5,7.4V464h-48v-24c0-4.4-3.6-8-8-8H184
			c-4.4,0-8,3.6-8,8v24h-48v-33.4c0-3.3-2-6.2-5-7.4C90.3,410,65.1,383,54.1,349.5c-1.1-3.3-4.1-5.5-7.6-5.5H16v-64h30.4
			c3.5,0,6.5-2.2,7.6-5.5c11.1-33.5,36.3-60.5,69-73.7c3-1.2,5-4.2,5-7.4l-0.2-48.7c20.6,3.5,36.6,19.9,39.6,40.5
			c0.6,3.9,3.9,6.9,7.9,6.9h60c6.3,14.6,20.7,24,36.6,24c15.9,0,30.3-9.4,36.6-24h3.4C369.4,192,418.7,232.7,429.7,289.1z"/>
		<path fill="#2135CC" d="M480,336v16h-8c-8.8,0-16-7.2-16-16v-16h-8.3c-2.8,50.5-33.6,95.2-79.7,115.9V464c0,8.8-7.2,16-16,16h-48
			c-8.8,0-16-7.2-16-16v-16h-96v16c0,8.8-7.2,16-16,16h-48c-8.8,0-16-7.2-16-16v-28.1c-32.9-14.8-58.5-42.2-71.2-75.9H16
			c-8.8,0-16-7.2-16-16v-64c0-8.8,7.2-16,16-16h24.8c12.8-33.8,38.4-61,71.3-75.9v-43.4c0-4.8,2.1-9.3,5.7-12.4
			c3.5-3,8.1-4.3,12.7-3.5c25.1,4,45.3,22.6,51.5,47.2H232v-56h16v24.2c6.9-5.3,15.3-8.2,24-8.2c22.1,0,40,17.9,40,40
			c72-0.2,131.6,56.1,135.6,128h8.4c8.8,0,16,7.2,16,16v16H480z M357,423.2c53.2-21.6,83.6-77.8,72.7-134.1
			c-11-56.3-60.3-97-117.7-97.1h-3.4c-6.3,14.6-20.7,24-36.6,24c-15.9,0-30.3-9.4-36.6-24h-60c-4,0-7.4-2.9-7.9-6.9
			c-3-20.6-19-37-39.6-40.5l0.2,48.7c0,3.3-2,6.2-5,7.4C90.3,214,65.1,241,54,274.5c-1.1,3.3-4.1,5.5-7.6,5.5H16v64h30.5
			c3.5,0,6.5,2.2,7.6,5.5c11,33.5,36.2,60.5,68.9,73.7c3,1.2,5,4.2,5,7.4V464h48v-24c0-4.4,3.6-8,8-8h112c4.4,0,8,3.6,8,8v24h48
			v-33.4C352,427.4,354,424.4,357,423.2z M296,176c0-13.3-10.8-24-24-24s-24,10.8-24,24s10.8,24,24,24S296,189.3,296,176z"/>
	</g>
	<g>
	</g>
</g>
<path fill="#2135CC" d="M176,128c20.6,0,37.8-15.5,39.8-36c2.1-20.4-11.7-39.1-31.8-43.2V8h-16v40.8c-5.8,1.2-11.3,3.8-16,7.4V32
	h-16v56C136,110.1,153.9,128,176,128z M176,64c13.3,0,24,10.7,24,24s-10.7,24-24,24s-24-10.7-24-24S162.7,64,176,64z"/>
<path fill="#FFFFFF" d="M120,256c-8.8,0-16-7.2-16-16H88c0,17.7,14.3,32,32,32s32-14.3,32-32h-16C136,248.8,128.8,256,120,256z"/>
<path fill="#FFFFFF" d="M224,232h96v-16h-96V232z"/>
</svg>
